<svg width="50" height="50" viewBox="0 0 50 50" fill="none" xmlns="http://www.w3.org/2000/svg">
<g id="mdi:address-marker">
<path id="Vector" d="M25.0003 23.9587C23.619 23.9587 22.2942 23.4099 21.3175 22.4332C20.3407 21.4564 19.792 20.1317 19.792 18.7503C19.792 17.369 20.3407 16.0442 21.3175 15.0675C22.2942 14.0907 23.619 13.542 25.0003 13.542C26.3817 13.542 27.7064 14.0907 28.6832 15.0675C29.6599 16.0442 30.2087 17.369 30.2087 18.7503C30.2087 19.4343 30.0739 20.1116 29.8122 20.7435C29.5505 21.3754 29.1668 21.9495 28.6832 22.4332C28.1995 22.9168 27.6254 23.3005 26.9935 23.5622C26.3616 23.8239 25.6843 23.9587 25.0003 23.9587ZM25.0003 4.16699C21.1326 4.16699 17.4233 5.70345 14.6884 8.43835C11.9534 11.1733 10.417 14.8826 10.417 18.7503C10.417 29.6878 25.0003 45.8337 25.0003 45.8337C25.0003 45.8337 39.5837 29.6878 39.5837 18.7503C39.5837 14.8826 38.0472 11.1733 35.3123 8.43835C32.5774 5.70345 28.8681 4.16699 25.0003 4.16699Z" fill="#0B4848"/>
</g>
</svg>
